<svg width="49" height="48" viewBox="0 0 49 48" fill="none" xmlns="http://www.w3.org/2000/svg">
<path d="M24.5338 0C27.8654 0 30.9961 0.629321 33.9256 1.88796C36.8552 3.1466 39.4114 4.86293 41.5942 7.03695C43.777 9.21097 45.5003 11.7473 46.7641 14.646C48.0278 17.5447 48.6597 20.6532 48.6597 23.9714C48.6597 27.2896 48.0278 30.4076 46.7641 33.3254C45.5003 36.2431 43.777 38.789 41.5942 40.9631C39.4114 43.1371 36.8552 44.8534 33.9256 46.112C30.9961 47.3707 27.8654 48 24.5338 48C21.2021 48 18.0811 47.3707 15.1706 46.112C12.2602 44.8534 9.71359 43.1371 7.53077 40.9631C5.34795 38.789 3.62467 36.2431 2.36094 33.3254C1.0972 30.4076 0.465332 27.2896 0.465332 23.9714C0.465332 20.6532 1.0972 17.5447 2.36094 14.646C3.62467 11.7473 5.34795 9.21097 7.53077 7.03695C9.71359 4.86293 12.2602 3.1466 15.1706 1.88796C18.0811 0.629321 21.2021 0 24.5338 0ZM33.6097 10.4696H28.4973C27.5016 10.4696 26.5826 10.6412 25.7401 10.9845C24.8976 11.3278 24.1604 11.7855 23.5285 12.3576C22.8967 12.9297 22.4084 13.5781 22.0637 14.3027C21.7191 15.0274 21.5468 15.7521 21.5468 16.4768V19.5089H17.0088V25.4589H21.5468V37.4732H27.5782V25.4589H32.0588V19.5089H27.5782V17.9642C27.5782 17.5066 27.7601 17.1442 28.1239 16.8772C28.4877 16.6103 28.8037 16.4768 29.0717 16.4768H33.6097V10.4696Z" fill="#D9D9D9"/>
</svg>
