<svg width="49" height="48" viewBox="0 0 49 48" fill="none" xmlns="http://www.w3.org/2000/svg">
<path d="M24.5627 29.3047C23.8334 29.3047 23.152 29.1708 22.5186 28.9032C21.8853 28.6356 21.3287 28.2628 20.8488 27.7849C20.369 27.307 19.9947 26.7431 19.726 26.0932C19.4573 25.4432 19.3229 24.7551 19.3229 24.0287C19.3229 23.3023 19.4573 22.6237 19.726 21.9928C19.9947 21.362 20.369 20.8076 20.8488 20.3297C21.3287 19.8519 21.8853 19.4791 22.5186 19.2115C23.152 18.9438 23.8334 18.81 24.5627 18.81C26.0214 18.81 27.2594 19.3166 28.2766 20.3297C29.2939 21.3429 29.8025 22.5759 29.8025 24.0287C29.8025 24.7551 29.6682 25.4432 29.3994 26.0932C29.1307 26.7431 28.7565 27.307 28.2766 27.7849C27.7968 28.2628 27.2402 28.6356 26.6068 28.9032C25.9734 29.1708 25.2921 29.3047 24.5627 29.3047ZM32.9694 24.0287C32.9694 23.6846 32.9502 23.3309 32.9118 22.9677C32.8734 22.6045 32.8159 22.27 32.7391 21.9642H35.0999V33.491C35.0999 33.7969 35.0039 34.0454 34.812 34.2366C34.62 34.4277 34.3705 34.5233 34.0634 34.5233H15.062C14.7549 34.5233 14.5054 34.4277 14.3135 34.2366C14.1216 34.0454 14.0256 33.7969 14.0256 33.491V21.9642H16.3864C16.3096 22.27 16.252 22.6045 16.2136 22.9677C16.1752 23.3309 16.156 23.6846 16.156 24.0287C16.156 25.1756 16.3768 26.2652 16.8182 27.2975C17.2597 28.3297 17.8547 29.2282 18.6032 29.9928C19.3517 30.7575 20.2442 31.3596 21.2807 31.7993C22.3171 32.2389 23.4111 32.4588 24.5627 32.4588C25.7143 32.4588 26.8083 32.2389 27.8448 31.7993C28.8812 31.3596 29.7737 30.7575 30.5223 29.9928C31.2708 29.2282 31.8658 28.3297 32.3072 27.2975C32.7487 26.2652 32.9694 25.1756 32.9694 24.0287ZM24.793 0C28.1327 0 31.2612 0.630824 34.1786 1.89247C37.096 3.15412 39.6487 4.86499 41.8367 7.02509C44.0248 9.18519 45.7522 11.718 47.0189 14.6237C48.2857 17.5293 48.9191 20.6452 48.9191 23.9713C48.9191 27.2975 48.2857 30.4134 47.0189 33.319C45.7522 36.2246 44.0248 38.767 41.8367 40.9462C39.6487 43.1254 37.096 44.8459 34.1786 46.1075C31.2612 47.3692 28.1327 48 24.793 48C21.4534 48 18.3249 47.3692 15.4075 46.1075C12.4901 44.8459 9.94701 43.1254 7.77816 40.9462C5.60931 38.767 3.89151 36.2246 2.62475 33.319C1.35799 30.4134 0.724609 27.2975 0.724609 23.9713C0.724609 20.6452 1.35799 17.5293 2.62475 14.6237C3.89151 11.718 5.60931 9.18519 7.77816 7.02509C9.94701 4.86499 12.4901 3.15412 15.4075 1.89247C18.3249 0.630824 21.4534 0 24.793 0ZM38.2668 13.5341C38.2668 12.6547 37.9597 11.9092 37.3455 11.2975C36.7313 10.6858 35.9828 10.3799 35.0999 10.3799H14.0256C13.1427 10.3799 12.3942 10.6858 11.78 11.2975C11.1658 11.9092 10.8587 12.6547 10.8587 13.5341V34.5233C10.8587 35.4026 11.1658 36.1481 11.78 36.7599C12.3942 37.3716 13.1427 37.6774 14.0256 37.6774H35.0999C35.9828 37.6774 36.7313 37.3716 37.3455 36.7599C37.9597 36.1481 38.2668 35.4026 38.2668 34.5233V13.5341ZM34.0634 13.5341C34.3705 13.5341 34.62 13.6392 34.812 13.8495C35.0039 14.0597 35.0999 14.3178 35.0999 14.6237V17.7778C35.0999 18.0836 35.0039 18.3321 34.812 18.5233C34.62 18.7145 34.3705 18.81 34.0634 18.81H30.8965C30.5894 18.81 30.3303 18.7145 30.1192 18.5233C29.9081 18.3321 29.8025 18.0836 29.8025 17.7778V14.6237C29.8025 14.3178 29.9081 14.0597 30.1192 13.8495C30.3303 13.6392 30.5894 13.5341 30.8965 13.5341H34.0634Z" fill="#D9D9D9"/>
</svg>
